<svg width="176" height="85" viewBox="0 0 176 85" fill="none" xmlns="http://www.w3.org/2000/svg">
<path d="M124.042 25.9824L124.526 61.6382H169.347V36.379L161.145 36.7353L162.175 51.9473L133.091 54.826L133.494 26.3282L124.042 25.9824Z" fill="#00AEEF"/>
<path d="M136.234 27.2455L136.432 49.873L159.917 50.3599L159.239 33.3557L155.027 33.5815L155.503 43.537L140.743 45.121L141.156 26.7939L136.234 27.2455Z" fill="#00AEEF"/>
<path d="M127.087 0L107.204 33.966L119.4 35.9522L129.867 5.50695L165.498 31.0626L175.03 29.3586L134.654 0H127.087Z" fill="#00AEEF"/>
<path d="M0 61.6208V37.3599H6.66408V56.9358H15.9317V61.6208H0Z" fill="#E20A17"/>
<path d="M53.6797 53.6972V53.863C53.6374 54.9496 53.9231 55.821 54.5405 56.4807C55.1544 57.1368 56.0046 57.4861 57.0911 57.5249C58.3753 57.5708 59.356 57.3803 60.0369 56.9605C60.7142 56.5406 61.0705 55.8951 61.0988 55.0307C61.1446 53.803 59.7688 52.7835 56.9853 51.9721L55.4965 51.5417C52.3427 50.5751 50.2295 49.5379 49.1606 48.4231C48.0881 47.3118 47.5836 45.7807 47.6506 43.844C47.7247 41.7273 48.7055 40.0304 50.5929 38.7498C52.4803 37.4727 54.9462 36.8836 57.9837 36.9894C61.2081 37.1023 63.6247 37.7867 65.2263 39.0355C66.8315 40.2879 67.59 42.0871 67.5088 44.4366L67.4947 44.8459L60.7989 44.613V44.4966C60.8377 43.5124 60.6049 42.7468 60.1074 42.2C59.6065 41.6567 58.8621 41.3674 57.8673 41.3321C56.9218 41.3004 56.1386 41.5015 55.5248 41.9425C54.9109 42.3834 54.5899 42.9726 54.5617 43.7205C54.5193 44.927 56.2409 46.0171 59.73 46.9943L61.8996 47.6152C64.0904 48.2749 65.6814 49.1781 66.6798 50.3246C67.6746 51.4711 68.1403 52.9458 68.0768 54.7414C67.9921 57.1968 66.9761 59.056 65.0358 60.319C63.092 61.5855 60.3262 62.1534 56.7278 62.03C55.0732 61.97 53.6374 61.7513 52.4238 61.3703C51.2102 60.9892 50.1801 60.4213 49.3334 59.6663C47.6718 58.2058 46.8886 56.1385 46.9804 53.4644L53.6762 53.7007L53.6797 53.6972Z" fill="black"/>
<path d="M71.9009 61.6208V37.3599H89.6882V42.0095H78.3991V46.9626H89.1485V51.5806H78.3991V56.77H90.0163V61.6208H71.9009Z" fill="black"/>
<path d="M101.757 61.6208L93.4172 37.3599H100.381L106.089 55.0167L111.878 37.3599H118.532L109.868 61.6208H101.757Z" fill="black"/>
<path d="M37.5398 32.4915H32.562V36.0016H37.5398V32.4915Z" fill="#E20A17"/>
<path d="M25.7427 32.4915H30.7205V36.0016H25.7427V32.4915ZM26.2331 49.4956C26.2331 52.0074 26.6917 53.8913 27.6054 55.1507C28.5191 56.4066 29.8703 57.0346 31.6589 57.0346C33.4475 57.0346 34.7881 56.4031 35.6912 55.1437C36.5908 53.8807 37.0388 52.0004 37.0388 49.4991C37.0388 46.9979 36.5908 45.114 35.6912 43.844C34.7916 42.5775 33.4475 41.9425 31.6589 41.9425C29.8703 41.9425 28.4909 42.5775 27.5878 43.844C26.6846 45.114 26.2331 46.9979 26.2331 49.4991M19.3326 49.5203C19.3326 45.5833 20.4121 42.514 22.5712 40.3162C24.7302 38.1183 27.7606 37.0177 31.6624 37.0177C35.5642 37.0177 38.5523 38.1183 40.7219 40.3162C42.8915 42.514 43.9746 45.5833 43.9746 49.5203C43.9746 53.4574 42.895 56.5301 40.7289 58.7385C38.5629 60.9505 35.5395 62.0512 31.6589 62.0512C27.7783 62.0512 24.7655 60.947 22.5923 58.7385C20.4192 56.5301 19.3291 53.4574 19.3291 49.5203" fill="#E20A17"/>
<path d="M167.209 81.2215H168.719V71.5799H167.209V81.2215ZM162.009 81.2215H163.519V72.7688H165.173V71.5799H163.519V70.4475C163.519 69.7807 163.843 69.5302 164.489 69.5302H165.191V68.2355H164.094C162.637 68.2355 162.005 68.9905 162.005 70.4475V71.5799H160.601V72.7688H162.005V81.2215H162.009ZM156.435 75.2136L159.367 71.5799H157.603L154.219 76.0215H154.184V68.3766H152.674V81.2215H154.184V77.9653L155.426 76.4554L158.107 81.2215H159.871L156.435 75.2136ZM145.065 74.4939V74.4057C145.065 74.0459 145.065 72.5183 146.719 72.5183C147.725 72.5183 148.264 73.0228 148.264 73.94C148.264 74.7303 148.282 75.0548 147.167 75.397L145.135 76.0073C143.893 76.3848 143.318 77.3021 143.318 78.6709C143.318 80.3995 144.147 81.4755 145.947 81.4755C146.864 81.4755 147.781 80.9534 148.268 80.089H148.303C148.356 81.3308 149.111 81.3308 149.672 81.3308C150.05 81.3308 150.427 81.2603 150.554 81.2427V80.1631C150.483 80.2161 150.392 80.2513 150.194 80.2513C149.707 80.2513 149.725 79.8915 149.725 79.4787V74.1023C149.725 73.0933 149.725 71.333 146.793 71.333C144.49 71.333 143.555 72.3208 143.555 74.4974H145.065V74.4939ZM148.215 78.4521C148.215 79.4576 147.28 80.2866 146.271 80.2866C145.262 80.2866 144.902 79.6198 144.902 78.632C144.902 77.7854 145.153 77.4079 145.64 77.1045C146.324 76.6565 147.619 76.5647 148.212 75.9721V78.4557L148.215 78.4521ZM137.007 81.2215H139.022L142.26 68.3766H140.606L138.087 79.4046H138.051L135.533 68.3766H133.878L137.007 81.2215ZM125.764 81.2215H127.274V75.1254C127.274 73.5414 128.498 72.8393 129.253 72.8393C129.74 72.8393 129.92 72.8923 130.064 72.9099V71.4353C129.92 71.3647 129.705 71.3259 129.398 71.3259C128.3 71.3259 127.743 72.0985 127.313 73.0157H127.277V71.5764H125.767V81.218L125.764 81.2215ZM118.154 74.4939V74.4057C118.154 74.0459 118.154 72.5183 119.809 72.5183C120.818 72.5183 121.358 73.0228 121.358 73.94C121.358 74.7303 121.375 75.0548 120.261 75.397L118.228 76.0073C116.987 76.3848 116.412 77.3021 116.412 78.6709C116.412 80.3995 117.241 81.4755 119.036 81.4755C119.954 81.4755 120.871 80.9534 121.358 80.089H121.393C121.446 81.3308 122.204 81.3308 122.762 81.3308C123.139 81.3308 123.517 81.2603 123.644 81.2427V80.1631C123.573 80.2161 123.481 80.2513 123.284 80.2513C122.797 80.2513 122.815 79.8915 122.815 79.4787V74.1023C122.815 73.0933 122.815 71.333 119.883 71.333C117.579 71.333 116.645 72.3208 116.645 74.4974H118.154V74.4939ZM121.301 78.4521C121.301 79.4576 120.366 80.2866 119.357 80.2866C118.348 80.2866 117.989 79.6198 117.989 78.632C117.989 77.7854 118.239 77.4079 118.726 77.1045C119.41 76.6565 120.705 76.5647 121.298 75.9721V78.4557L121.301 78.4521ZM112.401 81.2215H113.91V68.3766H112.401V81.2215ZM107.183 75.2136L110.114 71.5799H108.351L104.971 76.0215H104.936V68.3766H103.426V81.2215H104.936V77.9653L106.177 76.4554L108.859 81.2215H110.622L107.186 75.2136H107.183ZM100.547 71.5799H99.0371V78.2369C99.0371 79.6234 97.9399 80.1808 97.132 80.1808C95.7633 80.1808 95.7103 78.9743 95.7103 78.2369V71.5799H94.2004V78.4169C94.2004 79.5669 94.2004 81.4755 96.7369 81.4755C97.6718 81.4755 98.6631 80.971 99.0759 80.089H99.1112V81.2215H100.551V71.5799H100.547ZM91.7309 74.5115C91.7309 73.4144 91.3005 71.3259 88.6547 71.3259C85.6878 71.3259 85.2186 74.1305 85.2186 76.5259C85.2186 79.8527 86.1887 81.472 88.5629 81.472C90.9372 81.472 91.7274 79.3835 91.7274 77.8736H90.2175C90.2175 78.9178 89.9282 80.2831 88.6335 80.2831C86.8167 80.2831 86.799 77.7466 86.799 76.5048C86.799 72.9805 87.7515 72.5113 88.6864 72.5113C89.8365 72.5113 90.214 73.5731 90.214 74.508H91.7239L91.7309 74.5115ZM79.7151 80.2866C78.1664 80.2866 77.863 78.4874 77.863 76.4025C77.863 74.3175 78.1876 72.5183 79.7151 72.5183C81.3521 72.5183 81.6378 74.3175 81.6378 76.4025C81.6378 78.4874 81.3132 80.2866 79.7151 80.2866ZM76.279 76.3989C76.279 79.1154 76.9634 81.472 79.7504 81.472C82.5374 81.472 83.2218 79.1154 83.2218 76.3989C83.2218 73.6825 82.5374 71.3259 79.7504 71.3259C76.9634 71.3259 76.279 73.6825 76.279 76.3989ZM68.419 84.64C68.8318 84.8375 69.5338 84.9998 70.2006 84.9998C71.2095 84.9998 72.1268 84.333 72.1268 83.4899C72.1268 82.4456 71.3189 82.1599 70.6874 82.1599C70.4546 82.1599 70.3452 82.1775 70.1476 82.2304L70.1124 82.1952L70.6345 81.4755C71.2836 81.4578 71.841 81.3308 72.289 81.098C73.7637 80.3078 74.3211 78.6709 74.4304 76.8187H72.7759C72.723 78.3851 72.4513 80.1808 70.5286 80.1808C68.3343 80.1808 68.0451 77.7713 68.0451 74.8008C68.0451 71.8304 68.3343 69.4209 70.5286 69.4209C72.1656 69.4209 72.6136 70.6627 72.67 72.1197H74.3246C74.254 69.6008 73.1357 68.1262 70.5286 68.1262C66.9867 68.1262 66.3905 71.5623 66.3905 74.8008C66.3905 77.2844 66.6974 79.6939 68.3343 80.8969C68.7471 81.1862 69.2692 81.3661 69.9007 81.4367L69.0011 82.6785L69.2692 83.003C69.4139 82.9501 69.682 82.876 69.9889 82.876C70.4193 82.876 70.8356 83.1265 70.8356 83.5428C70.8356 83.9026 70.5851 84.2448 69.8478 84.2448C69.5232 84.2448 68.733 84.0296 68.6977 84.0296L68.4296 84.64H68.419ZM58.4529 81.2215H59.9628V71.5799H58.4529V81.2215ZM58.4529 70.1053H59.9628V68.3766H58.4529V70.1053ZM53.8843 81.2215H55.3942V68.3766H53.8843V81.2215ZM49.3158 81.2215H50.8257V71.5799H49.3158V81.2215ZM49.3158 70.1053H50.8257V68.3766H49.3158V70.1053ZM35.4831 81.2215H36.9931V74.5645C36.9931 73.0545 38.0726 72.6206 38.7923 72.6206C40.034 72.6206 40.087 73.8271 40.087 74.5645V81.2215H41.5969V74.5645C41.5969 73.0545 42.6764 72.6206 43.3961 72.6206C44.6379 72.6206 44.6908 73.8271 44.6908 74.5645V81.2215H46.2007V74.3845C46.2007 73.2345 46.2007 71.3259 43.6642 71.3259C42.6552 71.3259 41.8121 72.0103 41.3782 72.8535C41.0712 71.7563 40.4256 71.3259 39.2932 71.3259C38.3583 71.3259 37.367 71.8304 36.9543 72.7123H36.919V71.5799H35.4796V81.2215H35.4831ZM27.7678 75.3935V75.0337C27.7678 74.4586 27.9477 72.5148 29.5317 72.5148C30.8793 72.5148 31.2039 73.7919 31.2039 74.8714V75.3935H27.7678ZM32.7844 76.5789V75.9685C32.7844 73.8801 32.5162 71.3259 29.5634 71.3259C26.6106 71.3259 26.1273 74.1305 26.1273 76.5259C26.1273 79.8527 27.0975 81.472 29.4717 81.472C32.1176 81.472 32.7103 79.0801 32.7103 78.0535H31.2004C31.2004 78.7908 31.0028 80.2831 29.5634 80.2831C27.7113 80.2831 27.7113 78.0711 27.7113 76.5789H32.7844ZM23.8801 74.4022C23.8801 73.2697 23.7531 71.3259 20.9485 71.3259C19.2763 71.3259 17.8722 72.1902 17.8722 73.9894C17.8722 75.9685 19.0787 76.3284 20.2464 76.7235C21.3965 77.101 22.603 77.3903 22.603 78.685C22.603 80.0538 21.4882 80.2866 21.0014 80.2866C19.5091 80.2866 19.2022 79.2247 19.2022 78.057H17.6923C17.6923 79.0448 17.7276 81.4755 21.0014 81.4755C22.8006 81.4755 24.1129 80.4665 24.1129 78.4521C24.1129 76.4377 22.9064 76.1132 21.7563 75.7357C20.5675 75.3582 19.3821 75.143 19.3821 73.9894C19.3821 72.6418 20.4616 72.5148 20.9485 72.5148C22.0456 72.5148 22.3702 73.1815 22.3702 74.4022H23.8801ZM10.1921 69.8901H11.5962V68.0732H10.1921V69.8901ZM13.1061 69.8901H14.5102V68.0732H13.1061V69.8901ZM12.3159 80.2866C10.7707 80.2866 10.4637 78.4874 10.4637 76.4025C10.4637 74.3175 10.7883 72.5183 12.3159 72.5183C13.9528 72.5183 14.2421 74.3175 14.2421 76.4025C14.2421 78.4874 13.9175 80.2866 12.3159 80.2866ZM8.87974 76.3989C8.87974 79.1154 9.56414 81.472 12.3511 81.472C15.1381 81.472 15.8225 79.1154 15.8225 76.3989C15.8225 73.6825 15.1381 71.3259 12.3511 71.3259C9.56414 71.3259 8.87974 73.6825 8.87974 76.3989ZM0.515246 81.2215H7.31338V79.8174H2.09572V68.3766H0.511719V81.2215H0.515246Z" fill="black"/>
</svg>